<?xml version="1.0"?>
<svg version="1.1" xmlns="http://www.w3.org/2000/svg" width="400px" height="60px" style=""><path fill="#e94949" d="M56,22.20703125q0-0.2734375,0.380859375-0.419921875t0.498046875-0.146484375l0.72265625-0.1171875q0.72265625-0.1171875,1.46484375-0.205078125t1.4453125-0.166015625q2.48046875-0.3125,4.9609375-0.615234375t5-0.302734375q0.1953125,0,0.537109375,0.01953125t0.68359375,0.107421875t0.5859375,0.244140625t0.244140625,0.4296875q0,0.1953125-0.185546875,0.341796875t-0.439453125,0.224609375t-0.517578125,0.09765625t-0.419921875,0.01953125l-0.341796875,0t-0.341796875-0.078125q-1.03515625,0-2.041015625,0.09765625t-2.041015625,0.17578125q0.2734375,0.3125,0.29296875,0.87890625t0.0390625,0.9765625q0,6.9140625,0.09765625,13.75t0.17578125,13.80859375l0,0.0390625q-0.64453125,0.56640625-1.103515625,0.72265625t-0.927734375,0.15625q-0.44921875,0-0.908203125-0.166015625t-1.103515625-0.712890625l0-0.0390625l0.15625-15.33203125q0-1.5234375-0.0390625-3.359375t-0.0390625-3.720703125t0.05859375-3.642578125t0.3125-3.06640625q-1.15234375,0.1171875-2.44140625,0.3515625q-1.11328125,0.1953125-2.12890625,0.1953125l-0.3515625,0q-0.078125,0-0.458984375,0.01953125t-0.78125-0.01953125t-0.72265625-0.15625t-0.322265625-0.390625z M75.3099609375,37.24609375q0-0.80078125,0.283203125-1.34765625t1.201171875-0.546875q0.3515625,0,0.87890625,0.107421875t0.60546875,0.537109375q0.1953125,1.15234375,0.21484375,2.5t0.13671875,2.5390625q0.44921875-0.87890625,1.15234375-1.89453125t1.6015625-1.875t1.953125-1.42578125t2.1484375-0.56640625q0.078125,0,0.29296875,0.05859375t0.400390625,0.166015625t0.224609375,0.244140625t-0.21484375,0.25390625q-0.078125,0.234375-0.33203125,0.283203125t-0.44921875,0.048828125q-0.1171875,0-0.37109375-0.09765625q-1.4453125,0.76171875-2.4609375,2.0703125t-1.66015625,2.900390625t-0.9375,3.359375t-0.29296875,3.447265625q0,0.83984375-0.380859375,1.015625t-1.220703125,0.17578125q-0.44921875,0-0.947265625-0.09765625t-0.693359375-0.625q-0.3515625-1.11328125-0.576171875-2.55859375t-0.341796875-2.978515625t-0.166015625-3.017578125t-0.048828125-2.67578125z M89.190234375,42.71484375q0-1.328125,0.361328125-2.55859375t1.083984375-2.197265625t1.806640625-1.54296875t2.509765625-0.576171875q0.87890625,0,1.943359375,0.263671875t2.001953125,0.78125t1.5625,1.318359375t0.625,1.8359375q0,0.48828125-0.166015625,0.7421875t-0.673828125,0.25390625l-0.21484375-0.0390625q0.56640625,1.5234375,0.9765625,3.125t0.80078125,3.203125q0.15625,0.3125,0.234375,0.556640625t0.078125,0.478515625q0,0.3125-0.17578125,0.517578125t-0.458984375,0.302734375t-0.5859375,0.13671875t-0.537109375,0.0390625q-0.83984375,0-1.259765625-0.29296875t-0.60546875-0.80078125t-0.224609375-1.142578125t-0.15625-1.279296875q-0.234375,0.76171875-0.615234375,1.484375t-0.8984375,1.298828125t-1.220703125,0.91796875t-1.58203125,0.341796875q-1.2890625,0-2.16796875-0.7421875t-1.416015625-1.826171875t-0.78125-2.314453125t-0.244140625-2.28515625z M91.963671875,42.44140625q0,0.72265625,0.09765625,1.5234375t0.322265625,1.58203125t0.576171875,1.474609375t0.87890625,1.220703125q0.95703125-1.03515625,1.416015625-2.51953125t0.8203125-2.861328125t0.8203125-2.36328125t1.416015625-0.986328125q0.60546875,0,1.015625,0.21484375q-0.1953125-0.48828125-0.64453125-0.947265625t-1.005859375-0.83984375t-1.15234375-0.625t-1.123046875-0.244140625q-0.15625,0-0.361328125,0.048828125t-0.322265625,0.009765625q-0.80078125,0.234375-1.318359375,0.810546875t-0.83984375,1.357421875t-0.458984375,1.6015625t-0.13671875,1.54296875z M106.1173828125,42.32421875q0-1.40625,0.361328125-2.822265625t1.123046875-2.5390625t1.943359375-1.826171875t2.783203125-0.703125q0.68359375,0,1.50390625,0.166015625t1.513671875,0.52734375t1.171875,0.9375t0.478515625,1.416015625q0,0.52734375-0.2734375,0.703125t-0.72265625,0.17578125l-0.13671875-0.1953125t-0.380859375-0.498046875t-0.517578125-0.64453125t-0.52734375-0.576171875q-0.80078125-0.80078125-1.50390625-0.859375l-0.15625,0q-0.5859375,0-1.09375,0.3515625q-0.56640625,0.4296875-1.005859375,1.2109375t-0.732421875,1.66015625t-0.458984375,1.77734375t-0.166015625,1.484375q0,0.80078125,0.185546875,1.826171875t0.625,1.943359375t1.11328125,1.54296875t1.728515625,0.625q0.95703125,0,1.73828125-0.46875t1.494140625-1.044921875t1.396484375-1.03515625t1.40625-0.458984375q0.3125,0,0.634765625,0.078125t0.322265625,0.41015625l0,0.1171875q-0.3515625,0.91796875-1.19140625,1.62109375t-1.884765625,1.220703125t-2.16796875,0.771484375t-2.001953125,0.25390625q-1.640625,0-2.880859375-0.537109375t-2.060546875-1.474609375t-1.240234375-2.255859375t-0.419921875-2.880859375z M123.16171875,38.359375q0-0.56640625,0.322265625-0.7421875t0.810546875-0.17578125q0.80078125,0,1.220703125,0.302734375t0.419921875,1.064453125q0,0.91796875,0.13671875,2.294921875t0.400390625,2.67578125t0.625,2.236328125t0.751953125,0.9375q0.72265625,0,1.279296875-1.11328125t0.9765625-2.734375t0.72265625-3.486328125t0.419921875-3.330078125q0.078125-0.80078125,0.380859375-1.162109375t1.103515625-0.361328125q0.91796875,0,1.337890625,0.76171875t0.537109375,1.875q0.09765625,0.95703125,0.09765625,1.9921875l0,0.33203125l0,0.78125q0,0.7421875,0.01953125,1.328125l0.56640625,11.97265625l0.078125,1.9921875q0.0390625,0.2734375,0.05859375,0.517578125t0.01953125,0.517578125q0,1.11328125-0.478515625,1.435546875t-1.552734375,0.322265625q-0.234375,0-0.595703125-0.0390625t-0.703125-0.15625t-0.5859375-0.322265625t-0.244140625-0.517578125l0.078125-0.1953125q0.09765625-1.171875,0.09765625-2.4609375l0-0.41015625q-0.01953125-1.5234375-0.09765625-3.0859375t-0.17578125-3.125t-0.09765625-3.0078125q-0.2734375,0.60546875-0.634765625,1.25t-0.83984375,1.162109375t-1.083984375,0.859375t-1.3671875,0.341796875q-1.11328125,0-1.8359375-0.5859375t-1.123046875-1.5234375t-0.576171875-2.099609375t-0.234375-2.32421875t-0.078125-2.216796875t-0.15625-1.77734375z M147.094140625,46.8359375q-0.01953125-0.5859375-0.01953125-1.171875q0-1.8359375,0.1953125-3.69140625q0.234375-2.4609375,0.3125-4.84375q0.078125-2.79296875,0.234375-5.80078125q0.09765625-1.640625,0.09765625-3.2421875q0-1.30859375-0.05859375-2.59765625q0.1953125-0.44921875,0.517578125-0.60546875t0.810546875-0.15625q0.234375,0,0.498046875,0.0390625t0.458984375,0.1953125q0.2734375,0.0390625,0.673828125,0.078125t0.615234375,0.234375q0.078125,0.1171875,0.400390625,0.80078125t0.76171875,1.66015625t0.91796875,2.119140625t0.91796875,2.16796875t0.76171875,1.806640625t0.400390625,0.9765625q1.8359375-3.3203125,3.59375-6.826171875t3.84765625-6.611328125q0.1953125-0.2734375,0.673828125-0.400390625t0.791015625-0.126953125q0.83984375,0,1.220703125,0.400390625t0.498046875,1.025390625q0.078125,0.390625,0.09765625,0.83984375q0.01953125,0.234375-0.01953125,0.48828125q-0.078125,0.72265625-0.078125,1.3671875q0,4.55078125-0.3125,9.033203125t-0.56640625,9.052734375q-0.0390625,0.9375-0.0390625,1.953125t0.0390625,2.109375q0.01953125,0.390625,0.01953125,0.76171875q0,1.71875-0.29296875,3.203125q-0.2734375,0.44921875-0.8984375,0.56640625t-1.0546875,0.1171875q-0.91796875,0-1.7578125-0.4296875l-0.21484375-0.25390625l-0.078125-0.3125t-0.0390625-0.3125q0-2.83203125,0.205078125-5.703125t0.458984375-5.732421875t0.537109375-5.712890625t0.478515625-5.703125q-1.15234375,1.9140625-2.236328125,3.896484375t-2.041015625,4.033203125q-0.3515625,0.80078125-0.673828125,1.71875t-0.771484375,1.640625q-0.234375,0.3515625-0.791015625,0.4296875t-0.966796875,0.078125q-0.390625,0-0.810546875-0.13671875t-0.576171875-0.5859375q-0.72265625-2.20703125-1.54296875-4.31640625t-1.66015625-4.27734375q0,1.4453125,0.05859375,3.740234375t0.05859375,4.755859375t-0.078125,4.70703125t-0.37109375,3.5546875q-0.078125,0.48828125-0.634765625,0.60546875t-0.966796875,0.1171875q-0.3125,0-0.595703125-0.0390625t-0.556640625-0.15625z M170.2908203125,42.32421875q0-1.40625,0.361328125-2.822265625t1.123046875-2.5390625t1.943359375-1.826171875t2.783203125-0.703125q0.68359375,0,1.50390625,0.166015625t1.513671875,0.52734375t1.171875,0.9375t0.478515625,1.416015625q0,0.52734375-0.2734375,0.703125t-0.72265625,0.17578125l-0.13671875-0.1953125t-0.380859375-0.498046875t-0.517578125-0.64453125t-0.52734375-0.576171875q-0.80078125-0.80078125-1.50390625-0.859375l-0.15625,0q-0.5859375,0-1.09375,0.3515625q-0.56640625,0.4296875-1.005859375,1.2109375t-0.732421875,1.66015625t-0.458984375,1.77734375t-0.166015625,1.484375q0,0.80078125,0.185546875,1.826171875t0.625,1.943359375t1.11328125,1.54296875t1.728515625,0.625q0.95703125,0,1.73828125-0.46875t1.494140625-1.044921875t1.396484375-1.03515625t1.40625-0.458984375q0.3125,0,0.634765625,0.078125t0.322265625,0.41015625l0,0.1171875q-0.3515625,0.91796875-1.19140625,1.62109375t-1.884765625,1.220703125t-2.16796875,0.771484375t-2.001953125,0.25390625q-1.640625,0-2.880859375-0.537109375t-2.060546875-1.474609375t-1.240234375-2.255859375t-0.419921875-2.880859375z M187.33515625,22.83203125q0-1.3671875,0.46875-1.8359375t1.30859375-0.46875q0.234375,0,0.498046875,0.0390625t0.498046875,0.1171875q1.30859375-0.25390625,2.48046875-0.25390625q1.89453125,0,3.4375,0.6640625q2.48046875,1.0546875,4.1015625,3.125t2.3828125,4.86328125t0.76171875,5.72265625q0,1.640625-0.224609375,3.41796875t-0.869140625,3.30078125q-0.56640625,1.3671875-1.5625,2.861328125t-2.255859375,2.83203125t-2.71484375,2.34375t-2.939453125,1.357421875l0,0.15625q0,0.390625-0.205078125,0.634765625t-0.498046875,0.37109375t-0.673828125,0.166015625t-0.712890625,0.0390625q-0.1953125,0-0.556640625-0.0390625t-0.703125-0.146484375t-0.576171875-0.283203125t-0.234375-0.48828125q0-3.5546875-0.185546875-7.119140625t-0.419921875-7.12890625t-0.419921875-7.119140625t-0.185546875-7.12890625z M191.0265625,21.8359375q0.1953125,1.875,0.25390625,3.740234375t0.17578125,3.740234375q0.3125,4.84375,0.72265625,9.638671875t0.48828125,9.638671875q1.875-1.23046875,3.212890625-2.8125t2.197265625-3.4375t1.259765625-3.896484375t0.400390625-4.208984375q0-1.5625-0.2734375-3.4375t-0.9375-3.61328125t-1.787109375-3.14453125t-2.802734375-2.01171875q-0.3515625-0.1171875-0.849609375-0.1953125t-1.591796875-0.078125q-0.1171875,0-0.234375,0.0390625t-0.234375,0.0390625z M206.8599609375,43.0859375q0-1.11328125,0.283203125-2.294921875t0.8984375-2.12890625t1.552734375-1.54296875t2.265625-0.595703125q0.99609375,0,2.099609375,0.341796875t2.021484375,0.9765625t1.494140625,1.552734375t0.576171875,2.05078125q0,1.3671875-0.498046875,2.59765625t-1.396484375,2.197265625t-2.099609375,1.5234375t-2.607421875,0.556640625q-1.15234375,0-2.01171875-0.419921875t-1.435546875-1.123046875t-0.859375-1.66015625t-0.283203125-2.03125z M209.7310546875,43.046875q0,0.3515625,0.107421875,1.03515625t0.322265625,1.337890625t0.556640625,1.1328125t0.830078125,0.439453125q1.03515625-0.1171875,1.708984375-0.673828125t1.09375-1.357421875t0.5859375-1.73828125t0.166015625-1.77734375q0-1.07421875-0.419921875-1.796875t-1.376953125-1.171875q0,0.0390625,0.0390625,0.0390625t0.0390625-0.0390625l-0.48828125-0.1171875q-0.1953125-0.078125-0.478515625-0.17578125t-0.556640625-0.4296875q-0.76171875,0.2734375-1.181640625,0.703125t-0.634765625,1.044921875t-0.263671875,1.474609375t-0.048828125,2.0703125z M221.677734375,42.8125l0-0.56640625q0-0.703125,0.0390625-1.328125q0.0390625-0.87890625,0.0390625-1.4453125q0-0.3125,0.0390625-0.712890625t0.1953125-0.634765625q0.1953125-0.1953125,0.458984375-0.400390625t0.576171875-0.205078125q0.99609375,0,1.5625,0.224609375t0.60546875,0.927734375l0.078125,0.60546875q0.3515625-0.83984375,0.9375-2.080078125t1.357421875-2.36328125t1.73828125-1.9140625t2.041015625-0.791015625q0.99609375,0,1.640625,0.9375t1.025390625,2.392578125t0.537109375,3.2421875t0.21484375,3.505859375t0.078125,3.134765625t0.13671875,2.138671875q0.078125,0.60546875,0.263671875,1.279296875t0.185546875,1.240234375q0,0.15625-0.224609375,0.302734375t-0.478515625,0.244140625t-0.517578125,0.15625t-0.380859375,0.05859375q-0.76171875,0-1.083984375-1.142578125t-0.400390625-2.861328125t-0.078125-3.720703125t-0.13671875-3.720703125t-0.556640625-2.861328125t-1.337890625-1.181640625q-0.83984375,0-1.73828125,1.083984375t-1.54296875,2.880859375q-0.625,1.796875-0.859375,4.08203125q-0.078125,0.72265625-0.078125,1.4453125q0,1.58203125,0.33203125,3.1640625q0.0390625,0.2734375-0.224609375,0.41015625t-0.654296875,0.21484375t-0.791015625,0.09765625t-0.615234375,0.01953125q-0.76171875,0-1.220703125-0.537109375t-0.712890625-1.376953125t-0.341796875-1.884765625t-0.107421875-2.060546875z M239.4251953125,42.71484375q0-1.328125,0.361328125-2.55859375t1.083984375-2.197265625t1.806640625-1.54296875t2.509765625-0.576171875q0.87890625,0,1.943359375,0.263671875t2.001953125,0.78125t1.5625,1.318359375t0.625,1.8359375q0,0.48828125-0.166015625,0.7421875t-0.673828125,0.25390625l-0.21484375-0.0390625q0.56640625,1.5234375,0.9765625,3.125t0.80078125,3.203125q0.15625,0.3125,0.234375,0.556640625t0.078125,0.478515625q0,0.3125-0.17578125,0.517578125t-0.458984375,0.302734375t-0.5859375,0.13671875t-0.537109375,0.0390625q-0.83984375,0-1.259765625-0.29296875t-0.60546875-0.80078125t-0.224609375-1.142578125t-0.15625-1.279296875q-0.234375,0.76171875-0.615234375,1.484375t-0.8984375,1.298828125t-1.220703125,0.91796875t-1.58203125,0.341796875q-1.2890625,0-2.16796875-0.7421875t-1.416015625-1.826171875t-0.78125-2.314453125t-0.244140625-2.28515625z M242.1986328125,42.44140625q0,0.72265625,0.09765625,1.5234375t0.322265625,1.58203125t0.576171875,1.474609375t0.87890625,1.220703125q0.95703125-1.03515625,1.416015625-2.51953125t0.8203125-2.861328125t0.8203125-2.36328125t1.416015625-0.986328125q0.60546875,0,1.015625,0.21484375q-0.1953125-0.48828125-0.64453125-0.947265625t-1.005859375-0.83984375t-1.15234375-0.625t-1.123046875-0.244140625q-0.15625,0-0.361328125,0.048828125t-0.322265625,0.009765625q-0.80078125,0.234375-1.318359375,0.810546875t-0.83984375,1.357421875t-0.458984375,1.6015625t-0.13671875,1.54296875z M256.35234375,49.6484375q0-0.56640625,0.048828125-1.19140625t0.087890625-1.171875l0.1171875-2.9296875q0.1953125-3.515625,0.478515625-6.9140625t0.478515625-6.875q0.1171875-1.9140625,0.17578125-3.759765625t0.17578125-3.759765625q-0.078125-0.15625-0.078125-0.21484375q0-0.2734375,0.205078125-0.4296875t0.478515625-0.263671875t0.576171875-0.146484375t0.458984375-0.0390625l0.44921875,0q0.60546875,0.078125,0.87890625,0.380859375t0.3515625,0.72265625t0.0390625,0.8984375t-0.0390625,0.888671875q0,2.83203125-0.13671875,5.771484375t-0.3125,5.8984375t-0.322265625,5.91796875t-0.146484375,5.849609375l0,1.3671875q0,0.91796875-0.517578125,1.2109375t-1.435546875,0.29296875q-0.80078125,0-1.40625-0.3515625t-0.60546875-1.15234375z M265.3107421875,42.48046875q0-1.5234375,0.322265625-2.763671875t1.025390625-2.099609375t1.845703125-1.337890625t2.783203125-0.478515625q0.91796875,0,1.875,0.244140625t1.640625,0.908203125q0-0.390625,0.078125-1.611328125t0.1953125-2.841796875t0.244140625-3.3984375t0.224609375-3.30078125t0.17578125-2.55859375t0.1171875-1.171875q0.1953125-0.56640625,0.72265625-0.673828125t0.99609375-0.107421875q1.23046875,0,1.513671875,0.390625t0.283203125,1.5625q0,4.27734375-0.380859375,8.515625t-0.380859375,8.515625q0,2.75390625,0.107421875,5.537109375t0.771484375,5.478515625l0.21484375,0.1953125l0.1171875,0.3515625l-0.29296875,0.44921875q-0.7421875,0.46875-1.71875,0.46875l-0.078125,0q-0.99609375,0-1.8359375-0.46875q-0.3125-0.1953125-0.517578125-1.162109375t-0.322265625-2.12890625t-0.17578125-2.236328125t-0.09765625-1.5234375q-0.68359375,1.5625-1.865234375,2.685546875t-2.978515625,1.123046875q-1.40625,0-2.3046875-0.60546875t-1.396484375-1.54296875t-0.703125-2.099609375t-0.205078125-2.314453125z M267.6740234375,42.59765625q0,0.44921875,0.107421875,1.328125t0.341796875,1.7578125t0.654296875,1.5625t1.103515625,0.68359375q0.91796875-0.44921875,1.66015625-1.494140625t1.279296875-2.3046875t0.83984375-2.51953125t0.302734375-2.177734375q0-1.15234375-0.83984375-1.9140625t-2.01171875-0.76171875q-0.3515625,0-0.712890625,0.13671875t-0.673828125,0.3125q-0.72265625,0.68359375-1.123046875,1.240234375t-0.60546875,1.15234375t-0.263671875,1.318359375t-0.05859375,1.6796875z"/><path fill="#" d=""/></svg>
