<?xml version="1.0"?>
<svg version="1.1" xmlns="http://www.w3.org/2000/svg" width="350px" height="60px" style=""><path fill="#e94949" d="M70,23.57080078125q0-0.2255859375,0.314208984375-0.346435546875t0.410888671875-0.120849609375l0.59619140625-0.0966796875q0.59619140625-0.0966796875,1.20849609375-0.169189453125t1.1923828125-0.136962890625q2.04638671875-0.2578125,4.0927734375-0.507568359375t4.125-0.249755859375q0.1611328125,0,0.443115234375,0.01611328125t0.56396484375,0.088623046875t0.4833984375,0.201416015625t0.201416015625,0.3544921875q0,0.1611328125-0.153076171875,0.281982421875t-0.362548828125,0.185302734375t-0.427001953125,0.08056640625t-0.346435546875,0.01611328125l-0.281982421875,0t-0.281982421875-0.064453125q-0.85400390625,0-1.683837890625,0.08056640625t-1.683837890625,0.14501953125q0.2255859375,0.2578125,0.24169921875,0.72509765625t0.0322265625,0.8056640625q0,5.7041015625,0.08056640625,11.34375t0.14501953125,11.39208984375l0,0.0322265625q-0.53173828125,0.46728515625-0.910400390625,0.59619140625t-0.765380859375,0.12890625q-0.37060546875,0-0.749267578125-0.136962890625t-0.910400390625-0.588134765625l0-0.0322265625l0.12890625-12.64892578125q0-1.2568359375-0.0322265625-2.771484375t-0.0322265625-3.069580078125t0.04833984375-3.005126953125t0.2578125-2.52978515625q-0.95068359375,0.0966796875-2.01416015625,0.2900390625q-0.91845703125,0.1611328125-1.75634765625,0.1611328125l-0.2900390625,0q-0.064453125,0-0.378662109375,0.01611328125t-0.64453125-0.01611328125t-0.59619140625-0.12890625t-0.265869140625-0.322265625z M85.930717773438,35.97802734375q0-0.66064453125,0.233642578125-1.11181640625t0.990966796875-0.451171875q0.2900390625,0,0.72509765625,0.088623046875t0.49951171875,0.443115234375q0.1611328125,0.95068359375,0.17724609375,2.0625t0.11279296875,2.0947265625q0.37060546875-0.72509765625,0.95068359375-1.56298828125t1.3212890625-1.546875t1.611328125-1.17626953125t1.7724609375-0.46728515625q0.064453125,0,0.24169921875,0.04833984375t0.330322265625,0.136962890625t0.185302734375,0.201416015625t-0.17724609375,0.20947265625q-0.064453125,0.193359375-0.27392578125,0.233642578125t-0.37060546875,0.040283203125q-0.0966796875,0-0.30615234375-0.08056640625q-1.1923828125,0.62841796875-2.0302734375,1.7080078125t-1.36962890625,2.392822265625t-0.7734375,2.771484375t-0.24169921875,2.843994140625q0,0.69287109375-0.314208984375,0.837890625t-1.007080078125,0.14501953125q-0.37060546875,0-0.781494140625-0.08056640625t-0.572021484375-0.515625q-0.2900390625-0.91845703125-0.475341796875-2.11083984375t-0.281982421875-2.457275390625t-0.136962890625-2.489501953125t-0.040283203125-2.20751953125z M97.381943359375,40.48974609375q0-1.095703125,0.298095703125-2.11083984375t0.894287109375-1.812744140625t1.490478515625-1.27294921875t2.070556640625-0.475341796875q0.72509765625,0,1.603271484375,0.217529296875t1.651611328125,0.64453125t1.2890625,1.087646484375t0.515625,1.5146484375q0,0.40283203125-0.136962890625,0.6123046875t-0.555908203125,0.20947265625l-0.17724609375-0.0322265625q0.46728515625,1.2568359375,0.8056640625,2.578125t0.66064453125,2.642578125q0.12890625,0.2578125,0.193359375,0.459228515625t0.064453125,0.394775390625q0,0.2578125-0.14501953125,0.427001953125t-0.378662109375,0.249755859375t-0.4833984375,0.11279296875t-0.443115234375,0.0322265625q-0.69287109375,0-1.039306640625-0.24169921875t-0.49951171875-0.66064453125t-0.185302734375-0.942626953125t-0.12890625-1.055419921875q-0.193359375,0.62841796875-0.507568359375,1.224609375t-0.7412109375,1.071533203125t-1.007080078125,0.75732421875t-1.30517578125,0.281982421875q-1.0634765625,0-1.78857421875-0.6123046875t-1.168212890625-1.506591796875t-0.64453125-1.909423828125t-0.201416015625-1.88525390625z M99.670029296875,40.26416015625q0,0.59619140625,0.08056640625,1.2568359375t0.265869140625,1.30517578125t0.475341796875,1.216552734375t0.72509765625,1.007080078125q0.78955078125-0.85400390625,1.168212890625-2.07861328125t0.6767578125-2.360595703125t0.6767578125-1.94970703125t1.168212890625-0.813720703125q0.49951171875,0,0.837890625,0.17724609375q-0.1611328125-0.40283203125-0.53173828125-0.781494140625t-0.829833984375-0.69287109375t-0.95068359375-0.515625t-0.926513671875-0.201416015625q-0.12890625,0-0.298095703125,0.040283203125t-0.265869140625,0.008056640625q-0.66064453125,0.193359375-1.087646484375,0.668701171875t-0.69287109375,1.119873046875t-0.378662109375,1.3212890625t-0.11279296875,1.27294921875z M111.34684082031,40.16748046875q0-1.16015625,0.298095703125-2.328369140625t0.926513671875-2.0947265625t1.603271484375-1.506591796875t2.296142578125-0.580078125q0.56396484375,0,1.24072265625,0.136962890625t1.248779296875,0.43505859375t0.966796875,0.7734375t0.394775390625,1.168212890625q0,0.43505859375-0.2255859375,0.580078125t-0.59619140625,0.14501953125l-0.11279296875-0.1611328125t-0.314208984375-0.410888671875t-0.427001953125-0.53173828125t-0.43505859375-0.475341796875q-0.66064453125-0.66064453125-1.24072265625-0.708984375l-0.12890625,0q-0.4833984375,0-0.90234375,0.2900390625q-0.46728515625,0.3544921875-0.829833984375,0.9990234375t-0.604248046875,1.36962890625t-0.378662109375,1.46630859375t-0.136962890625,1.224609375q0,0.66064453125,0.153076171875,1.506591796875t0.515625,1.603271484375t0.91845703125,1.27294921875t1.426025390625,0.515625q0.78955078125,0,1.43408203125-0.38671875t1.232666015625-0.862060546875t1.152099609375-0.85400390625t1.16015625-0.378662109375q0.2578125,0,0.523681640625,0.064453125t0.265869140625,0.33837890625l0,0.0966796875q-0.2900390625,0.75732421875-0.98291015625,1.33740234375t-1.554931640625,1.007080078125t-1.78857421875,0.636474609375t-1.651611328125,0.20947265625q-1.353515625,0-2.376708984375-0.443115234375t-1.699951171875-1.216552734375t-1.023193359375-1.861083984375t-0.346435546875-2.376708984375z M125.40841796875,36.896484375q0-0.46728515625,0.265869140625-0.6123046875t0.668701171875-0.14501953125q0.66064453125,0,1.007080078125,0.249755859375t0.346435546875,0.878173828125q0,0.75732421875,0.11279296875,1.893310546875t0.330322265625,2.20751953125t0.515625,1.844970703125t0.620361328125,0.7734375q0.59619140625,0,1.055419921875-0.91845703125t0.8056640625-2.255859375t0.59619140625-2.876220703125t0.346435546875-2.747314453125q0.064453125-0.66064453125,0.314208984375-0.958740234375t0.910400390625-0.298095703125q0.75732421875,0,1.103759765625,0.62841796875t0.443115234375,1.546875q0.08056640625,0.78955078125,0.08056640625,1.6435546875l0,0.27392578125l0,0.64453125q0,0.6123046875,0.01611328125,1.095703125l0.46728515625,9.87744140625l0.064453125,1.6435546875q0.0322265625,0.2255859375,0.04833984375,0.427001953125t0.01611328125,0.427001953125q0,0.91845703125-0.394775390625,1.184326171875t-1.281005859375,0.265869140625q-0.193359375,0-0.491455078125-0.0322265625t-0.580078125-0.12890625t-0.4833984375-0.265869140625t-0.201416015625-0.427001953125l0.064453125-0.1611328125q0.08056640625-0.966796875,0.08056640625-2.0302734375l0-0.33837890625q-0.01611328125-1.2568359375-0.08056640625-2.5458984375t-0.14501953125-2.578125t-0.08056640625-2.4814453125q-0.2255859375,0.49951171875-0.523681640625,1.03125t-0.69287109375,0.958740234375t-0.894287109375,0.708984375t-1.1279296875,0.281982421875q-0.91845703125,0-1.5146484375-0.4833984375t-0.926513671875-1.2568359375t-0.475341796875-1.732177734375t-0.193359375-1.91748046875t-0.064453125-1.828857421875t-0.12890625-1.46630859375z M145.15266601563,43.8896484375q-0.01611328125-0.4833984375-0.01611328125-0.966796875q0-1.5146484375,0.1611328125-3.04541015625q0.193359375-2.0302734375,0.2578125-3.99609375q0.064453125-2.30419921875,0.193359375-4.78564453125q0.08056640625-1.353515625,0.08056640625-2.6748046875q0-1.07958984375-0.04833984375-2.14306640625q0.1611328125-0.37060546875,0.427001953125-0.49951171875t0.668701171875-0.12890625q0.193359375,0,0.410888671875,0.0322265625t0.378662109375,0.1611328125q0.2255859375,0.0322265625,0.555908203125,0.064453125t0.507568359375,0.193359375q0.064453125,0.0966796875,0.330322265625,0.66064453125t0.62841796875,1.36962890625t0.75732421875,1.748291015625t0.75732421875,1.78857421875t0.62841796875,1.490478515625t0.330322265625,0.8056640625q1.5146484375-2.7392578125,2.96484375-5.631591796875t3.17431640625-5.454345703125q0.1611328125-0.2255859375,0.555908203125-0.330322265625t0.652587890625-0.104736328125q0.69287109375,0,1.007080078125,0.330322265625t0.410888671875,0.845947265625q0.064453125,0.322265625,0.08056640625,0.69287109375q0.01611328125,0.193359375-0.01611328125,0.40283203125q-0.064453125,0.59619140625-0.064453125,1.1279296875q0,3.75439453125-0.2578125,7.452392578125t-0.46728515625,7.468505859375q-0.0322265625,0.7734375-0.0322265625,1.611328125t0.0322265625,1.740234375q0.01611328125,0.322265625,0.01611328125,0.62841796875q0,1.41796875-0.24169921875,2.642578125q-0.2255859375,0.37060546875-0.7412109375,0.46728515625t-0.8701171875,0.0966796875q-0.75732421875,0-1.4501953125-0.3544921875l-0.17724609375-0.20947265625l-0.064453125-0.2578125t-0.0322265625-0.2578125q0-2.33642578125,0.169189453125-4.705078125t0.378662109375-4.729248046875t0.443115234375-4.713134765625t0.394775390625-4.705078125q-0.95068359375,1.5791015625-1.844970703125,3.214599609375t-1.683837890625,3.327392578125q-0.2900390625,0.66064453125-0.555908203125,1.41796875t-0.636474609375,1.353515625q-0.193359375,0.2900390625-0.652587890625,0.3544921875t-0.797607421875,0.064453125q-0.322265625,0-0.668701171875-0.11279296875t-0.475341796875-0.4833984375q-0.59619140625-1.82080078125-1.27294921875-3.56103515625t-1.36962890625-3.52880859375q0,1.1923828125,0.04833984375,3.085693359375t0.04833984375,3.923583984375t-0.064453125,3.88330078125t-0.30615234375,2.9326171875q-0.064453125,0.40283203125-0.523681640625,0.49951171875t-0.797607421875,0.0966796875q-0.2578125,0-0.491455078125-0.0322265625t-0.459228515625-0.12890625z M164.28992675781,40.16748046875q0-1.16015625,0.298095703125-2.328369140625t0.926513671875-2.0947265625t1.603271484375-1.506591796875t2.296142578125-0.580078125q0.56396484375,0,1.24072265625,0.136962890625t1.248779296875,0.43505859375t0.966796875,0.7734375t0.394775390625,1.168212890625q0,0.43505859375-0.2255859375,0.580078125t-0.59619140625,0.14501953125l-0.11279296875-0.1611328125t-0.314208984375-0.410888671875t-0.427001953125-0.53173828125t-0.43505859375-0.475341796875q-0.66064453125-0.66064453125-1.24072265625-0.708984375l-0.12890625,0q-0.4833984375,0-0.90234375,0.2900390625q-0.46728515625,0.3544921875-0.829833984375,0.9990234375t-0.604248046875,1.36962890625t-0.378662109375,1.46630859375t-0.136962890625,1.224609375q0,0.66064453125,0.153076171875,1.506591796875t0.515625,1.603271484375t0.91845703125,1.27294921875t1.426025390625,0.515625q0.78955078125,0,1.43408203125-0.38671875t1.232666015625-0.862060546875t1.152099609375-0.85400390625t1.16015625-0.378662109375q0.2578125,0,0.523681640625,0.064453125t0.265869140625,0.33837890625l0,0.0966796875q-0.2900390625,0.75732421875-0.98291015625,1.33740234375t-1.554931640625,1.007080078125t-1.78857421875,0.636474609375t-1.651611328125,0.20947265625q-1.353515625,0-2.376708984375-0.443115234375t-1.699951171875-1.216552734375t-1.023193359375-1.861083984375t-0.346435546875-2.376708984375z M178.35150390625,24.08642578125q0-1.1279296875,0.38671875-1.5146484375t1.07958984375-0.38671875q0.193359375,0,0.410888671875,0.0322265625t0.410888671875,0.0966796875q1.07958984375-0.20947265625,2.04638671875-0.20947265625q1.56298828125,0,2.8359375,0.5478515625q2.04638671875,0.8701171875,3.3837890625,2.578125t1.9658203125,4.01220703125t0.62841796875,4.72119140625q0,1.353515625-0.185302734375,2.81982421875t-0.717041015625,2.72314453125q-0.46728515625,1.1279296875-1.2890625,2.360595703125t-1.861083984375,2.33642578125t-2.23974609375,1.93359375t-2.425048828125,1.119873046875l0,0.12890625q0,0.322265625-0.169189453125,0.523681640625t-0.410888671875,0.30615234375t-0.555908203125,0.136962890625t-0.588134765625,0.0322265625q-0.1611328125,0-0.459228515625-0.0322265625t-0.580078125-0.120849609375t-0.475341796875-0.233642578125t-0.193359375-0.40283203125q0-2.9326171875-0.153076171875-5.873291015625t-0.346435546875-5.88134765625t-0.346435546875-5.873291015625t-0.153076171875-5.88134765625z M181.3969140625,23.2646484375q0.1611328125,1.546875,0.20947265625,3.085693359375t0.14501953125,3.085693359375q0.2578125,3.99609375,0.59619140625,7.951904296875t0.40283203125,7.951904296875q1.546875-1.01513671875,2.650634765625-2.3203125t1.812744140625-2.8359375t1.039306640625-3.214599609375t0.330322265625-3.472412109375q0-1.2890625-0.2255859375-2.8359375t-0.7734375-2.98095703125t-1.474365234375-2.59423828125t-2.312255859375-1.65966796875q-0.2900390625-0.0966796875-0.700927734375-0.1611328125t-1.313232421875-0.064453125q-0.0966796875,0-0.193359375,0.0322265625t-0.193359375,0.0322265625z M194.45946777344,40.7958984375q0-0.91845703125,0.233642578125-1.893310546875t0.7412109375-1.75634765625t1.281005859375-1.27294921875t1.869140625-0.491455078125q0.82177734375,0,1.732177734375,0.281982421875t1.667724609375,0.8056640625t1.232666015625,1.281005859375t0.475341796875,1.69189453125q0,1.1279296875-0.410888671875,2.14306640625t-1.152099609375,1.812744140625t-1.732177734375,1.2568359375t-2.151123046875,0.459228515625q-0.95068359375,0-1.65966796875-0.346435546875t-1.184326171875-0.926513671875t-0.708984375-1.36962890625t-0.233642578125-1.67578125z M196.82812011719,40.763671875q0,0.2900390625,0.088623046875,0.85400390625t0.265869140625,1.103759765625t0.459228515625,0.9345703125t0.684814453125,0.362548828125q0.85400390625-0.0966796875,1.409912109375-0.555908203125t0.90234375-1.119873046875t0.4833984375-1.43408203125t0.136962890625-1.46630859375q0-0.88623046875-0.346435546875-1.482421875t-1.135986328125-0.966796875q0,0.0322265625,0.0322265625,0.0322265625t0.0322265625-0.0322265625l-0.40283203125-0.0966796875q-0.1611328125-0.064453125-0.394775390625-0.14501953125t-0.459228515625-0.3544921875q-0.62841796875,0.2255859375-0.974853515625,0.580078125t-0.523681640625,0.862060546875t-0.217529296875,1.216552734375t-0.040283203125,1.7080078125z M206.68413085937,40.5703125l0-0.46728515625q0-0.580078125,0.0322265625-1.095703125q0.0322265625-0.72509765625,0.0322265625-1.1923828125q0-0.2578125,0.0322265625-0.588134765625t0.1611328125-0.523681640625q0.1611328125-0.1611328125,0.378662109375-0.330322265625t0.475341796875-0.169189453125q0.82177734375,0,1.2890625,0.185302734375t0.49951171875,0.765380859375l0.064453125,0.49951171875q0.2900390625-0.69287109375,0.7734375-1.716064453125t1.119873046875-1.94970703125t1.43408203125-1.5791015625t1.683837890625-0.652587890625q0.82177734375,0,1.353515625,0.7734375t0.845947265625,1.973876953125t0.443115234375,2.6748046875t0.17724609375,2.892333984375t0.064453125,2.586181640625t0.11279296875,1.764404296875q0.064453125,0.49951171875,0.217529296875,1.055419921875t0.153076171875,1.023193359375q0,0.12890625-0.185302734375,0.249755859375t-0.394775390625,0.201416015625t-0.427001953125,0.12890625t-0.314208984375,0.04833984375q-0.62841796875,0-0.894287109375-0.942626953125t-0.330322265625-2.360595703125t-0.064453125-3.069580078125t-0.11279296875-3.069580078125t-0.459228515625-2.360595703125t-1.103759765625-0.974853515625q-0.69287109375,0-1.43408203125,0.894287109375t-1.27294921875,2.376708984375q-0.515625,1.482421875-0.708984375,3.36767578125q-0.064453125,0.59619140625-0.064453125,1.1923828125q0,1.30517578125,0.27392578125,2.6103515625q0.0322265625,0.2255859375-0.185302734375,0.33837890625t-0.539794921875,0.17724609375t-0.652587890625,0.08056640625t-0.507568359375,0.01611328125q-0.62841796875,0-1.007080078125-0.443115234375t-0.588134765625-1.135986328125t-0.281982421875-1.554931640625t-0.088623046875-1.699951171875z M221.32578613281,40.48974609375q0-1.095703125,0.298095703125-2.11083984375t0.894287109375-1.812744140625t1.490478515625-1.27294921875t2.070556640625-0.475341796875q0.72509765625,0,1.603271484375,0.217529296875t1.651611328125,0.64453125t1.2890625,1.087646484375t0.515625,1.5146484375q0,0.40283203125-0.136962890625,0.6123046875t-0.555908203125,0.20947265625l-0.17724609375-0.0322265625q0.46728515625,1.2568359375,0.8056640625,2.578125t0.66064453125,2.642578125q0.12890625,0.2578125,0.193359375,0.459228515625t0.064453125,0.394775390625q0,0.2578125-0.14501953125,0.427001953125t-0.378662109375,0.249755859375t-0.4833984375,0.11279296875t-0.443115234375,0.0322265625q-0.69287109375,0-1.039306640625-0.24169921875t-0.49951171875-0.66064453125t-0.185302734375-0.942626953125t-0.12890625-1.055419921875q-0.193359375,0.62841796875-0.507568359375,1.224609375t-0.7412109375,1.071533203125t-1.007080078125,0.75732421875t-1.30517578125,0.281982421875q-1.0634765625,0-1.78857421875-0.6123046875t-1.168212890625-1.506591796875t-0.64453125-1.909423828125t-0.201416015625-1.88525390625z M223.61387207031,40.26416015625q0,0.59619140625,0.08056640625,1.2568359375t0.265869140625,1.30517578125t0.475341796875,1.216552734375t0.72509765625,1.007080078125q0.78955078125-0.85400390625,1.168212890625-2.07861328125t0.6767578125-2.360595703125t0.6767578125-1.94970703125t1.168212890625-0.813720703125q0.49951171875,0,0.837890625,0.17724609375q-0.1611328125-0.40283203125-0.53173828125-0.781494140625t-0.829833984375-0.69287109375t-0.95068359375-0.515625t-0.926513671875-0.201416015625q-0.12890625,0-0.298095703125,0.040283203125t-0.265869140625,0.008056640625q-0.66064453125,0.193359375-1.087646484375,0.668701171875t-0.69287109375,1.119873046875t-0.378662109375,1.3212890625t-0.11279296875,1.27294921875z M235.29068359375,46.2099609375q0-0.46728515625,0.040283203125-0.98291015625t0.072509765625-0.966796875l0.0966796875-2.4169921875q0.1611328125-2.900390625,0.394775390625-5.7041015625t0.394775390625-5.671875q0.0966796875-1.5791015625,0.14501953125-3.101806640625t0.14501953125-3.101806640625q-0.064453125-0.12890625-0.064453125-0.17724609375q0-0.2255859375,0.169189453125-0.3544921875t0.394775390625-0.217529296875t0.475341796875-0.120849609375t0.378662109375-0.0322265625l0.37060546875,0q0.49951171875,0.064453125,0.72509765625,0.314208984375t0.2900390625,0.59619140625t0.0322265625,0.7412109375t-0.0322265625,0.733154296875q0,2.33642578125-0.11279296875,4.761474609375t-0.2578125,4.8662109375t-0.265869140625,4.88232421875t-0.120849609375,4.825927734375l0,1.1279296875q0,0.75732421875-0.427001953125,0.9990234375t-1.184326171875,0.24169921875q-0.66064453125,0-1.16015625-0.2900390625t-0.49951171875-0.95068359375z M242.68136230469,40.29638671875q0-1.2568359375,0.265869140625-2.280029296875t0.845947265625-1.732177734375t1.522705078125-1.103759765625t2.296142578125-0.394775390625q0.75732421875,0,1.546875,0.201416015625t1.353515625,0.749267578125q0-0.322265625,0.064453125-1.329345703125t0.1611328125-2.344482421875t0.201416015625-2.8037109375t0.185302734375-2.72314453125t0.14501953125-2.11083984375t0.0966796875-0.966796875q0.1611328125-0.46728515625,0.59619140625-0.555908203125t0.82177734375-0.088623046875q1.01513671875,0,1.248779296875,0.322265625t0.233642578125,1.2890625q0,3.52880859375-0.314208984375,7.025390625t-0.314208984375,7.025390625q0,2.27197265625,0.088623046875,4.568115234375t0.636474609375,4.519775390625l0.17724609375,0.1611328125l0.0966796875,0.2900390625l-0.24169921875,0.37060546875q-0.6123046875,0.38671875-1.41796875,0.38671875l-0.064453125,0q-0.82177734375,0-1.5146484375-0.38671875q-0.2578125-0.1611328125-0.427001953125-0.958740234375t-0.265869140625-1.75634765625t-0.14501953125-1.844970703125t-0.08056640625-1.2568359375q-0.56396484375,1.2890625-1.538818359375,2.215576171875t-2.457275390625,0.926513671875q-1.16015625,0-1.9013671875-0.49951171875t-1.152099609375-1.27294921875t-0.580078125-1.732177734375t-0.169189453125-1.909423828125z M244.63106933594,40.39306640625q0,0.37060546875,0.088623046875,1.095703125t0.281982421875,1.4501953125t0.539794921875,1.2890625t0.910400390625,0.56396484375q0.75732421875-0.37060546875,1.36962890625-1.232666015625t1.055419921875-1.9013671875t0.69287109375-2.07861328125t0.249755859375-1.796630859375q0-0.95068359375-0.69287109375-1.5791015625t-1.65966796875-0.62841796875q-0.2900390625,0-0.588134765625,0.11279296875t-0.555908203125,0.2578125q-0.59619140625,0.56396484375-0.926513671875,1.023193359375t-0.49951171875,0.95068359375t-0.217529296875,1.087646484375t-0.04833984375,1.3857421875z"/><path fill="#" d=""/></svg>
